ffmpeg started on 2025-05-12 at 20:19:40
Report written to "D:\Convert\FFMetrics\reports\ssim_report-6.txt"
Log level: 32
Command line:
ffmpeg -hide_banner -nostdin -i "G:\\\xc0\xed\xe8\xec\xe5\\\xce\xed\xe3\xee\xe8\xed\xe3\xe8\\!_35_\xcb\xe5\xf2\xee_2024\\DreamCast-1\\\xcf\xee\xeb\xf3\xed\xee\xf7\xed\xfb\xe9 \xf3\xe4\xe0\xf0\\[DC] Mayonaka Punch - 07_Telegram_HEVC.mkv" -i "G:\\\xc0\xed\xe8\xec\xe5\\\xce\xed\xe3\xee\xe8\xed\xe3\xe8\\!_35_\xcb\xe5\xf2\xee_2024\\DreamCast-1\\\xcf\xee\xeb\xf3\xed\xee\xf7\xed\xfb\xe9 \xf3\xe4\xe0\xf0\\[DC] Mayonaka Punch - 07_Telegram.mp4" -lavfi "[0:v]settb=AVTB,setpts=PTS-STARTPTS,format=pix_fmts=yuv420p10,fps=24000/1001,scale=1920:1080:flags=bicubic[main];[1:v]settb=AVTB,setpts=PTS-STARTPTS,format=pix_fmts=yuv420p,fps=24000/1001,scale=1920:1080:flags=bicubic[ref];[main][ref]ssim=eof_action=endall:stats_file='D\\:/Convert/FFMetrics/logs/ssim_logfile-6.txt'" -f null -
Input #0, matroska,webm, from 'G:\Аниме\Онгоинги\!_35_Лето_2024\DreamCast-1\Полуночный удар\[DC] Mayonaka Punch - 07_Telegram_HEVC.mkv':
  Metadata:
    COMPATIBLE_BRANDS: isomiso2avc1mp41
    MAJOR_BRAND     : isom
    MINOR_VERSION   : 512
    ENCODER         : Lavf61.7.100
  Duration: 00:23:57.57, start: -0.021000, bitrate: 1061 kb/s
  Stream #0:0: Video: hevc (Main 10), yuv420p10le(tv, bt709, progressive), 1920x1080 [SAR 1:1 DAR 16:9], 23.98 fps, 23.98 tbr, 1k tbn (default)
      Metadata:
        HANDLER_NAME    : VideoHandler
        VENDOR_ID       : [0][0][0][0]
        ENCODER         : Lavc61.19.100 libx265
        BPS             : 872334
        DURATION        : 00:23:46.549708333
        NUMBER_OF_FRAMES: 34203
        NUMBER_OF_BYTES : 155553458
        _STATISTICS_WRITING_APP: mkvpropedit v66.0.0 ('Josie') 64-bit
        _STATISTICS_WRITING_DATE_UTC: 2025-05-10 11:12:32
        _STATISTICS_TAGS: BPS DURATION NUMBER_OF_FRAMES NUMBER_OF_BYTES
  Stream #0:1: Audio: aac (LC), 48000 Hz, stereo, fltp (default)
      Metadata:
        HANDLER_NAME    : SoundHandler
        VENDOR_ID       : [0][0][0][0]
        ENCODER         : Lavc61.19.100 aac
        BPS             : 192224
        DURATION        : 00:23:57.568000000
        NUMBER_OF_FRAMES: 67387
        NUMBER_OF_BYTES : 34542048
        _STATISTICS_WRITING_APP: mkvpropedit v66.0.0 ('Josie') 64-bit
        _STATISTICS_WRITING_DATE_UTC: 2025-05-10 11:12:32
        _STATISTICS_TAGS: BPS DURATION NUMBER_OF_FRAMES NUMBER_OF_BYTES
Input #1, mov,mp4,m4a,3gp,3g2,mj2, from 'G:\Аниме\Онгоинги\!_35_Лето_2024\DreamCast-1\Полуночный удар\[DC] Mayonaka Punch - 07_Telegram.mp4':
  Metadata:
    major_brand     : isom
    minor_version   : 512
    compatible_brands: isomiso2avc1mp41
    encoder         : Lavf60.16.100
  Duration: 00:23:57.53, start: 0.000000, bitrate: 3803 kb/s
  Stream #1:0[0x1](und): Video: h264 (High) (avc1 / 0x31637661), yuv420p(tv, bt709, progressive), 1920x1080 [SAR 1:1 DAR 16:9], 3683 kb/s, 23.98 fps, 23.98 tbr, 24k tbn (default)
      Metadata:
        handler_name    : VideoHandler
        vendor_id       : [0][0][0][0]
        encoder         : Lavc60.31.102 h264_qsv
  Stream #1:1[0x2](und): Audio: aac (HE-AACv2) (mp4a / 0x6134706D), 48000 Hz, stereo, fltp, 144 kb/s (default)
      Metadata:
        handler_name    : SoundHandler
        vendor_id       : [0][0][0][0]
Stream mapping:
  Stream #0:0 (hevc) -> settb:default
  Stream #1:0 (h264) -> settb:default
  ssim:default -> Stream #0:0 (wrapped_avframe)
  Stream #0:1 -> #0:1 (aac (native) -> pcm_s16le (native))
Output #0, null, to 'pipe:':
  Metadata:
    COMPATIBLE_BRANDS: isomiso2avc1mp41
    MAJOR_BRAND     : isom
    MINOR_VERSION   : 512
    encoder         : Lavf61.7.100
  Stream #0:0: Video: wrapped_avframe, yuv420p10le(tv, bt709, progressive), 1920x1080 [SAR 1:1 DAR 16:9], q=2-31, 200 kb/s, 23.98 fps, 23.98 tbn
      Metadata:
        encoder         : Lavc61.19.100 wrapped_avframe
  Stream #0:1: Audio: pcm_s16le, 48000 Hz, stereo, s16, 1536 kb/s (default)
      Metadata:
        HANDLER_NAME    : SoundHandler
        VENDOR_ID       : [0][0][0][0]
        _STATISTICS_TAGS: BPS DURATION NUMBER_OF_FRAMES NUMBER_OF_BYTES
        BPS             : 192224
        DURATION        : 00:23:57.568000000
        NUMBER_OF_FRAMES: 67387
        NUMBER_OF_BYTES : 34542048
        _STATISTICS_WRITING_APP: mkvpropedit v66.0.0 ('Josie') 64-bit
        _STATISTICS_WRITING_DATE_UTC: 2025-05-10 11:12:32
        encoder         : Lavc61.19.100 pcm_s16le
frame=  160 fps=0.0 q=-0.0 size=N/A time=00:00:06.67 bitrate=N/A speed=12.9x    frame=  406 fps=389 q=-0.0 size=N/A time=00:00:16.93 bitrate=N/A speed=16.2x    frame=  647 fps=417 q=-0.0 size=N/A time=00:00:26.98 bitrate=N/A speed=17.4x    frame=  877 fps=423 q=-0.0 size=N/A time=00:00:36.57 bitrate=N/A speed=17.6x    frame= 1110 fps=428 q=-0.0 size=N/A time=00:00:46.29 bitrate=N/A speed=17.9x    frame= 1336 fps=431 q=-0.0 size=N/A time=00:00:55.72 bitrate=N/A speed=  18x    frame= 1567 fps=433 q=-0.0 size=N/A time=00:01:05.35 bitrate=N/A speed=  18x    frame= 1792 fps=434 q=-0.0 size=N/A time=00:01:14.74 bitrate=N/A speed=18.1x    frame= 2039 fps=438 q=-0.0 size=N/A time=00:01:25.04 bitrate=N/A speed=18.3x    frame= 2262 fps=438 q=-0.0 size=N/A time=00:01:34.34 bitrate=N/A speed=18.3x    frame= 2402 fps=423 q=-0.0 size=N/A time=00:01:40.18 bitrate=N/A speed=17.6x    frame= 2557 fps=412 q=-0.0 size=N/A time=00:01:46.64 bitrate=N/A speed=17.2x    frame= 2719 fps=405 q=-0.0 size=N/A time=00:01:53.40 bitrate=N/A speed=16.9x    frame= 2897 fps=401 q=-0.0 size=N/A time=00:02:00.82 bitrate=N/A speed=16.7x    frame= 3079 fps=398 q=-0.0 size=N/A time=00:02:08.41 bitrate=N/A speed=16.6x    frame= 3263 fps=395 q=-0.0 size=N/A time=00:02:16.09 bitrate=N/A speed=16.5x    frame= 3450 fps=393 q=-0.0 size=N/A time=00:02:23.89 bitrate=N/A speed=16.4x    frame= 3641 fps=392 q=-0.0 size=N/A time=00:02:31.86 bitrate=N/A speed=16.3x    frame= 3828 fps=391 q=-0.0 size=N/A time=00:02:39.65 bitrate=N/A speed=16.3x    frame= 4021 fps=390 q=-0.0 size=N/A time=00:02:47.70 bitrate=N/A speed=16.2x    frame= 4211 fps=388 q=-0.0 size=N/A time=00:02:55.63 bitrate=N/A speed=16.2x    frame= 4392 fps=387 q=-0.0 size=N/A time=00:03:03.18 bitrate=N/A speed=16.1x    frame= 4622 fps=390 q=-0.0 size=N/A time=00:03:12.77 bitrate=N/A speed=16.3x    frame= 4884 fps=395 q=-0.0 size=N/A time=00:03:23.70 bitrate=N/A speed=16.5x    frame= 5108 fps=396 q=-0.0 size=N/A time=00:03:33.04 bitrate=N/A speed=16.5x    frame= 5343 fps=398 q=-0.0 size=N/A time=00:03:42.84 bitrate=N/A speed=16.6x    frame= 5560 fps=399 q=-0.0 size=N/A time=00:03:51.89 bitrate=N/A speed=16.6x    frame= 5770 fps=400 q=-0.0 size=N/A time=00:04:00.65 bitrate=N/A speed=16.7x    frame= 5993 fps=401 q=-0.0 size=N/A time=00:04:09.95 bitrate=N/A speed=16.7x    frame= 6252 fps=404 q=-0.0 size=N/A time=00:04:20.76 bitrate=N/A speed=16.9x    frame= 6501 fps=406 q=-0.0 size=N/A time=00:04:31.14 bitrate=N/A speed=  17x    frame= 6765 fps=410 q=-0.0 size=N/A time=00:04:42.15 bitrate=N/A speed=17.1x    frame= 7011 fps=412 q=-0.0 size=N/A time=00:04:52.41 bitrate=N/A speed=17.2x    frame= 7248 fps=413 q=-0.0 size=N/A time=00:05:02.30 bitrate=N/A speed=17.2x    frame= 7487 fps=415 q=-0.0 size=N/A time=00:05:12.27 bitrate=N/A speed=17.3x    frame= 7745 fps=417 q=-0.0 size=N/A time=00:05:23.03 bitrate=N/A speed=17.4x    frame= 8016 fps=420 q=-0.0 size=N/A time=00:05:34.33 bitrate=N/A speed=17.5x    frame= 8224 fps=419 q=-0.0 size=N/A time=00:05:43.00 bitrate=N/A speed=17.5x    frame= 8478 fps=421 q=-0.0 size=N/A time=00:05:53.60 bitrate=N/A speed=17.6x    frame= 8713 fps=422 q=-0.0 size=N/A time=00:06:03.40 bitrate=N/A speed=17.6x    frame= 8971 fps=424 q=-0.0 size=N/A time=00:06:14.16 bitrate=N/A speed=17.7x    frame= 9190 fps=424 q=-0.0 size=N/A time=00:06:23.29 bitrate=N/A speed=17.7x    frame= 9387 fps=423 q=-0.0 size=N/A time=00:06:31.51 bitrate=N/A speed=17.7x    frame= 9628 fps=424 q=-0.0 size=N/A time=00:06:41.56 bitrate=N/A speed=17.7x    frame= 9866 fps=425 q=-0.0 size=N/A time=00:06:51.49 bitrate=N/A speed=17.7x    frame=10113 fps=426 q=-0.0 size=N/A time=00:07:01.79 bitrate=N/A speed=17.8x    frame=10350 fps=427 q=-0.0 size=N/A time=00:07:11.68 bitrate=N/A speed=17.8x    frame=10603 fps=428 q=-0.0 size=N/A time=00:07:22.23 bitrate=N/A speed=17.8x    frame=10797 fps=427 q=-0.0 size=N/A time=00:07:30.32 bitrate=N/A speed=17.8x    frame=11047 fps=428 q=-0.0 size=N/A time=00:07:40.75 bitrate=N/A speed=17.8x    frame=11273 fps=428 q=-0.0 size=N/A time=00:07:50.17 bitrate=N/A speed=17.9x    frame=11507 fps=429 q=-0.0 size=N/A time=00:07:59.93 bitrate=N/A speed=17.9x    frame=11741 fps=429 q=-0.0 size=N/A time=00:08:09.69 bitrate=N/A speed=17.9x    frame=11986 fps=430 q=-0.0 size=N/A time=00:08:19.91 bitrate=N/A speed=17.9x    frame=12227 fps=431 q=-0.0 size=N/A time=00:08:29.96 bitrate=N/A speed=  18x    frame=12488 fps=432 q=-0.0 size=N/A time=00:08:40.85 bitrate=N/A speed=  18x    frame=12716 fps=432 q=-0.0 size=N/A time=00:08:50.36 bitrate=N/A speed=  18x    frame=12953 fps=433 q=-0.0 size=N/A time=00:09:00.24 bitrate=N/A speed=  18x    frame=13184 fps=433 q=-0.0 size=N/A time=00:09:09.88 bitrate=N/A speed=18.1x    frame=13395 fps=433 q=-0.0 size=N/A time=00:09:18.68 bitrate=N/A speed=  18x    frame=13621 fps=432 q=-0.0 size=N/A time=00:09:28.10 bitrate=N/A speed=  18x    frame=13849 fps=433 q=-0.0 size=N/A time=00:09:37.61 bitrate=N/A speed=  18x    frame=14082 fps=433 q=-0.0 size=N/A time=00:09:47.33 bitrate=N/A speed=18.1x    frame=14301 fps=433 q=-0.0 size=N/A time=00:09:56.47 bitrate=N/A speed=18.1x    frame=14519 fps=433 q=-0.0 size=N/A time=00:10:05.56 bitrate=N/A speed=  18x    frame=14774 fps=434 q=-0.0 size=N/A time=00:10:16.19 bitrate=N/A speed=18.1x    frame=15017 fps=434 q=-0.0 size=N/A time=00:10:26.33 bitrate=N/A speed=18.1x    frame=15254 fps=435 q=-0.0 size=N/A time=00:10:36.21 bitrate=N/A speed=18.1x    frame=15463 fps=434 q=-0.0 size=N/A time=00:10:44.93 bitrate=N/A speed=18.1x    frame=15713 fps=435 q=-0.0 size=N/A time=00:10:55.36 bitrate=N/A speed=18.1x    frame=15959 fps=436 q=-0.0 size=N/A time=00:11:05.62 bitrate=N/A speed=18.2x    frame=16188 fps=436 q=-0.0 size=N/A time=00:11:15.17 bitrate=N/A speed=18.2x    frame=16412 fps=435 q=-0.0 size=N/A time=00:11:24.51 bitrate=N/A speed=18.2x    frame=16641 fps=436 q=-0.0 size=N/A time=00:11:34.06 bitrate=N/A speed=18.2x    frame=16867 fps=436 q=-0.0 size=N/A time=00:11:43.49 bitrate=N/A speed=18.2x    frame=17080 fps=435 q=-0.0 size=N/A time=00:11:52.37 bitrate=N/A speed=18.2x    frame=17290 fps=435 q=-0.0 size=N/A time=00:12:01.13 bitrate=N/A speed=18.1x    frame=17531 fps=435 q=-0.0 size=N/A time=00:12:11.18 bitrate=N/A speed=18.2x    frame=17744 fps=435 q=-0.0 size=N/A time=00:12:20.07 bitrate=N/A speed=18.2x    frame=17982 fps=436 q=-0.0 size=N/A time=00:12:29.99 bitrate=N/A speed=18.2x    frame=18218 fps=436 q=-0.0 size=N/A time=00:12:39.84 bitrate=N/A speed=18.2x    frame=18459 fps=436 q=-0.0 size=N/A time=00:12:49.89 bitrate=N/A speed=18.2x    frame=18704 fps=437 q=-0.0 size=N/A time=00:13:00.11 bitrate=N/A speed=18.2x    frame=18931 fps=437 q=-0.0 size=N/A time=00:13:09.58 bitrate=N/A speed=18.2x    frame=19162 fps=437 q=-0.0 size=N/A time=00:13:19.21 bitrate=N/A speed=18.2x    frame=19397 fps=437 q=-0.0 size=N/A time=00:13:29.01 bitrate=N/A speed=18.2x    frame=19632 fps=437 q=-0.0 size=N/A time=00:13:38.81 bitrate=N/A speed=18.2x    frame=19862 fps=437 q=-0.0 size=N/A time=00:13:48.41 bitrate=N/A speed=18.2x    frame=20106 fps=438 q=-0.0 size=N/A time=00:13:58.58 bitrate=N/A speed=18.3x    frame=20360 fps=438 q=-0.0 size=N/A time=00:14:09.18 bitrate=N/A speed=18.3x    frame=20600 fps=439 q=-0.0 size=N/A time=00:14:19.19 bitrate=N/A speed=18.3x    frame=20843 fps=439 q=-0.0 size=N/A time=00:14:29.32 bitrate=N/A speed=18.3x    frame=21058 fps=439 q=-0.0 size=N/A time=00:14:38.29 bitrate=N/A speed=18.3x    frame=21287 fps=439 q=-0.0 size=N/A time=00:14:47.84 bitrate=N/A speed=18.3x    frame=21522 fps=439 q=-0.0 size=N/A time=00:14:57.64 bitrate=N/A speed=18.3x    frame=21789 fps=440 q=-0.0 size=N/A time=00:15:08.78 bitrate=N/A speed=18.3x    frame=22030 fps=440 q=-0.0 size=N/A time=00:15:18.83 bitrate=N/A speed=18.4x    frame=22209 fps=439 q=-0.0 size=N/A time=00:15:26.30 bitrate=N/A speed=18.3x    frame=22411 fps=439 q=-0.0 size=N/A time=00:15:34.72 bitrate=N/A speed=18.3x    frame=22666 fps=439 q=-0.0 size=N/A time=00:15:45.36 bitrate=N/A speed=18.3x    frame=22896 fps=439 q=-0.0 size=N/A time=00:15:54.95 bitrate=N/A speed=18.3x    frame=23133 fps=439 q=-0.0 size=N/A time=00:16:04.83 bitrate=N/A speed=18.3x    frame=23353 fps=439 q=-0.0 size=N/A time=00:16:14.01 bitrate=N/A speed=18.3x    frame=23603 fps=440 q=-0.0 size=N/A time=00:16:24.44 bitrate=N/A speed=18.3x    frame=23841 fps=440 q=-0.0 size=N/A time=00:16:34.36 bitrate=N/A speed=18.3x    frame=24072 fps=440 q=-0.0 size=N/A time=00:16:44.00 bitrate=N/A speed=18.3x    frame=24324 fps=440 q=-0.0 size=N/A time=00:16:54.51 bitrate=N/A speed=18.4x    frame=24574 fps=441 q=-0.0 size=N/A time=00:17:04.94 bitrate=N/A speed=18.4x    frame=24816 fps=441 q=-0.0 size=N/A time=00:17:15.03 bitrate=N/A speed=18.4x    frame=25035 fps=441 q=-0.0 size=N/A time=00:17:24.16 bitrate=N/A speed=18.4x    frame=25260 fps=441 q=-0.0 size=N/A time=00:17:33.55 bitrate=N/A speed=18.4x    frame=25504 fps=441 q=-0.0 size=N/A time=00:17:43.72 bitrate=N/A speed=18.4x    frame=25739 fps=441 q=-0.0 size=N/A time=00:17:53.53 bitrate=N/A speed=18.4x    frame=25971 fps=441 q=-0.0 size=N/A time=00:18:03.20 bitrate=N/A speed=18.4x    frame=26219 fps=442 q=-0.0 size=N/A time=00:18:13.55 bitrate=N/A speed=18.4x    frame=26467 fps=442 q=-0.0 size=N/A time=00:18:23.89 bitrate=N/A speed=18.4x    frame=26696 fps=442 q=-0.0 size=N/A time=00:18:33.44 bitrate=N/A speed=18.4x    frame=26954 fps=442 q=-0.0 size=N/A time=00:18:44.20 bitrate=N/A speed=18.5x    frame=27191 fps=443 q=-0.0 size=N/A time=00:18:54.09 bitrate=N/A speed=18.5x    frame=27415 fps=443 q=-0.0 size=N/A time=00:19:03.43 bitrate=N/A speed=18.5x    frame=27663 fps=443 q=-0.0 size=N/A time=00:19:13.77 bitrate=N/A speed=18.5x    frame=27896 fps=443 q=-0.0 size=N/A time=00:19:23.49 bitrate=N/A speed=18.5x    frame=28141 fps=443 q=-0.0 size=N/A time=00:19:33.71 bitrate=N/A speed=18.5x    frame=28367 fps=443 q=-0.0 size=N/A time=00:19:43.14 bitrate=N/A speed=18.5x    frame=28600 fps=443 q=-0.0 size=N/A time=00:19:52.85 bitrate=N/A speed=18.5x    frame=28840 fps=443 q=-0.0 size=N/A time=00:20:02.86 bitrate=N/A speed=18.5x    frame=29066 fps=443 q=-0.0 size=N/A time=00:20:12.29 bitrate=N/A speed=18.5x    frame=29302 fps=443 q=-0.0 size=N/A time=00:20:22.13 bitrate=N/A speed=18.5x    frame=29510 fps=443 q=-0.0 size=N/A time=00:20:30.81 bitrate=N/A speed=18.5x    frame=29730 fps=443 q=-0.0 size=N/A time=00:20:39.98 bitrate=N/A speed=18.5x    frame=29944 fps=443 q=-0.0 size=N/A time=00:20:48.91 bitrate=N/A speed=18.5x    frame=30175 fps=443 q=-0.0 size=N/A time=00:20:58.54 bitrate=N/A speed=18.5x    frame=30366 fps=442 q=-0.0 size=N/A time=00:21:06.51 bitrate=N/A speed=18.4x    frame=30588 fps=442 q=-0.0 size=N/A time=00:21:15.77 bitrate=N/A speed=18.4x    frame=30827 fps=442 q=-0.0 size=N/A time=00:21:25.74 bitrate=N/A speed=18.4x    frame=31085 fps=443 q=-0.0 size=N/A time=00:21:36.50 bitrate=N/A speed=18.5x    frame=31352 fps=443 q=-0.0 size=N/A time=00:21:47.63 bitrate=N/A speed=18.5x    frame=31599 fps=443 q=-0.0 size=N/A time=00:21:57.94 bitrate=N/A speed=18.5x    frame=31842 fps=444 q=-0.0 size=N/A time=00:22:08.07 bitrate=N/A speed=18.5x    frame=32081 fps=444 q=-0.0 size=N/A time=00:22:18.04 bitrate=N/A speed=18.5x    frame=32319 fps=444 q=-0.0 size=N/A time=00:22:27.97 bitrate=N/A speed=18.5x    frame=32537 fps=444 q=-0.0 size=N/A time=00:22:37.06 bitrate=N/A speed=18.5x    frame=32759 fps=444 q=-0.0 size=N/A time=00:22:46.32 bitrate=N/A speed=18.5x    frame=32942 fps=443 q=-0.0 size=N/A time=00:22:53.95 bitrate=N/A speed=18.5x    frame=33144 fps=443 q=-0.0 size=N/A time=00:23:02.38 bitrate=N/A speed=18.5x    frame=33337 fps=442 q=-0.0 size=N/A time=00:23:10.43 bitrate=N/A speed=18.4x    frame=33583 fps=442 q=-0.0 size=N/A time=00:23:20.69 bitrate=N/A speed=18.5x    frame=33823 fps=443 q=-0.0 size=N/A time=00:23:30.70 bitrate=N/A speed=18.5x    frame=34016 fps=442 q=-0.0 size=N/A time=00:23:38.75 bitrate=N/A speed=18.4x    [Parsed_ssim_10 @ 0000016b8790ae00] SSIM Y:0.993940 (22.175555) U:0.994772 (22.816996) V:0.994181 (22.351763) All:0.994119 (22.305651)
[out#0/null @ 0000016b878e43c0] video:14697KiB audio:269548KiB subtitle:0KiB other streams:0KiB global headers:0KiB muxing overhead: unknown
frame=34203 fps=442 q=-0.0 Lsize=N/A time=00:23:46.55 bitrate=N/A speed=18.4x    
